<?xml version="1.0" standalone="no"?>
<!DOCTYPE svg PUBLIC "-//W3C//DTD SVG 20010904//EN"
 "http://www.w3.org/TR/2001/REC-SVG-20010904/DTD/svg10.dtd">
<svg version="1.0" xmlns="http://www.w3.org/2000/svg"
 width="1024.000000pt" height="1024.000000pt" viewBox="0 0 1024.000000 1024.000000"
 preserveAspectRatio="xMidYMid meet">

<g transform="translate(0.000000,1024.000000) scale(0.100000,-0.100000)"
fill="#000000" stroke="none">
<path d="M1311 7794 c-102 -51 -137 -155 -88 -257 28 -56 61 -86 116 -105 26
-9 943 -12 3786 -12 l3751 0 53 26 c93 47 133 144 97 238 -20 52 -72 106 -118
122 -25 10 -897 13 -3789 13 l-3755 1 -53 -26z"/>
<path d="M1311 5294 c-102 -51 -137 -155 -88 -257 28 -56 61 -86 116 -105 26
-9 943 -12 3786 -12 l3751 0 53 26 c93 47 133 144 97 238 -20 52 -72 106 -118
122 -25 10 -897 13 -3789 13 l-3755 1 -53 -26z"/>
<path d="M1311 2794 c-102 -51 -137 -155 -88 -257 28 -56 61 -86 116 -105 26
-9 943 -12 3786 -12 l3751 0 53 26 c93 47 133 144 97 238 -20 52 -72 106 -118
122 -25 10 -897 13 -3789 13 l-3755 1 -53 -26z"/>
</g>
</svg>
